<?xml version="1.0" encoding="UTF-8"?>
<svg width="32px" height="32px" viewBox="0 0 32 32" version="1.1" xmlns="http://www.w3.org/2000/svg" xmlns:xlink="http://www.w3.org/1999/xlink">
    <!-- Generator: Sketch Beta 47 (45292) - http://www.bohemiancoding.com/sketch -->
    <title>Group</title>
    <desc>Created with Sketch Beta.</desc>
    <defs></defs>
    <g id="Page-1" stroke="none" stroke-width="1" fill="none" fill-rule="evenodd">
        <g id="Artboard-2">
            <g id="Group">
                <path d="M12.8647739,19.9757217 C13.9354296,19.7966471 14.8637244,19.645197 15.7535253,19.2923789 C16.297306,19.0767745 16.8493571,18.8698937 17.4143612,18.7228659 C17.9741354,18.577171 18.1923288,18.7901098 18.2033966,19.3771909 C18.2282079,20.6946855 18.019562,21.9906137 17.8014294,23.281029 C17.6721431,24.046276 17.2352091,24.6931497 16.8081266,25.3358433 C16.1357893,26.3477116 15.0915869,26.8429534 14.0508507,27.3351056 C13.3549184,27.6641764 13.3741958,27.6296457 13.5296312,28.3473374 C13.630944,28.814773 13.8689621,29.0991357 14.2970784,29.2725763 C14.6338551,29.4091237 14.9609019,29.5696608 15.2905637,29.7232312 C15.4362084,29.7910809 15.5934073,29.8480867 15.7172205,29.9454388 C15.9171703,30.1027046 15.9165622,30.3387244 15.6893686,30.4308666 C15.4394314,30.532217 15.1432771,30.6016417 14.8806301,30.5709882 C14.5251233,30.5293092 14.1696773,30.4088155 13.8369142,30.2686939 C13.3165461,30.0495759 12.903876,30.1289963 12.541619,30.5693526 C12.3501221,30.8021011 12.1152663,30.9998343 11.8960999,31.2095018 C11.8088955,31.2929205 11.7203533,31.3811251 11.6170337,31.4405541 C11.3134603,31.6153881 10.930953,31.5701348 10.787984,31.355742 C10.6447718,31.1409252 10.7130637,30.8629234 10.9693253,30.5987339 C11.3765223,30.1788537 11.7971588,29.7703625 12.1796661,29.3290369 C12.3124187,29.17583 12.4081367,28.9423546 12.417441,28.7408048 C12.4438942,28.1686263 12.2053288,27.9734375 11.6371625,28.0690933 C10.8806007,28.1964326 10.1220929,28.3196524 9.37380149,28.4863686 C8.66996366,28.6430892 7.96655151,28.6201899 7.25870009,28.5820851 C6.99587072,28.5679699 6.73371029,28.5412541 6.47118498,28.521081 C6.22398429,28.5020588 5.97696604,28.4773422 5.86732204,28.782605 C5.75044142,29.1081621 5.84202426,29.4527414 6.13002979,29.6294533 C6.600228,29.9179355 7.0790007,30.1689791 7.67289047,30.0134702 C7.79348062,29.981908 8.0634858,30.0812592 8.07151298,30.1445654 C8.09103363,30.2978329 8.03989076,30.5025328 7.93894287,30.6193917 C7.72318198,30.869042 7.42994662,31.0205527 7.08380484,31.0139495 C6.88190908,31.0101329 6.67028339,31.0186747 6.48067165,30.9625776 C5.83381464,30.7709629 5.39286699,31.0192199 5.03103572,31.5420862 C4.74278695,31.958574 4.53851952,32.0267265 4.17297872,31.9195604 C3.74881518,31.7953713 3.60177181,31.4772656 3.78712672,31.0784672 C3.82099899,31.0055894 3.85280366,30.9206562 3.91118316,30.8718893 C4.60784517,30.2906238 4.63910253,29.4236024 4.8704921,28.6466634 C5.01656247,28.1561468 4.97064943,28.0598246 4.50367425,27.8379805 C3.47765457,27.3504929 2.67980142,26.6092962 2.2014544,25.5990635 C1.68315392,24.504564 1.27328119,23.357481 1.41716233,22.1051099 C1.5206035,21.2045271 1.63547733,20.3052165 1.75552017,19.4066934 C1.82496745,18.8870378 1.76810825,18.799742 1.24348332,18.7609708 C1.04207405,18.7461287 0.838110676,18.7650297 0.636458158,18.7515809 C0.380318108,18.7345579 0.150813705,18.6444148 0.0624539011,18.3809522 C-0.0256626546,18.1180954 0.0994275835,17.9075192 0.295302964,17.740076 C0.708337916,17.3873185 1.10927128,17.017235 1.54681346,16.6972513 C2.07429656,16.311417 2.42457355,15.7976983 2.6680039,15.2195225 C3.04485572,14.3242707 3.64914434,13.6040346 4.31825853,12.9254777 C4.71694186,12.5211665 5.20495798,12.2959299 5.77464459,12.2572193 C6.62242437,12.1996077 7.46722436,12.1246096 8.31792312,12.2741817 C8.7118023,12.3434852 9.12550618,12.2922951 9.52577062,12.336458 C9.96896831,12.3851643 10.5478375,12.9668538 10.6625289,13.3958211 C10.6960971,13.5212823 10.7935179,13.6381412 10.8843102,13.7386435 C11.2215126,14.1118165 11.6136282,14.4444615 11.9023635,14.8506506 C12.6719999,15.9331553 12.8805242,17.1711689 12.8223271,18.475033 C12.8020159,18.9315036 12.8460438,19.390882 12.8647739,19.9757217 L12.8647739,19.9757217 Z M3.84009395,17.9035815 C3.70132102,17.9972989 3.59502168,18.0978617 3.46853277,18.1492942 C3.02533508,18.3293986 2.83104081,18.6853669 2.74389724,19.1213614 C2.68484881,19.4166285 2.6497603,19.7170449 2.58238063,20.0101311 C2.20978564,21.6308894 2.44932402,23.2075454 2.91721138,24.7685112 C2.93423873,24.8253959 2.96434066,24.8816142 3.00028054,24.9291089 C3.67109747,25.8154554 4.38454359,26.6385564 5.56532976,26.8663979 C5.79325305,26.9104396 5.9970948,27.0767318 6.21297732,27.1848671 C6.37412906,27.2656203 6.53078072,27.3939894 6.69971639,27.4137385 C7.31531604,27.4858893 7.93456441,27.5394421 8.55381278,27.562826 C8.85215634,27.5740939 9.15560811,27.5143014 9.45340436,27.4663826 C10.1691005,27.3510987 10.9156284,27.3726652 11.5812763,27.0311756 C11.751489,26.9438797 11.942621,26.8212052 12.0303727,26.6630913 C12.4291169,25.9446726 12.5203348,25.915473 13.114103,26.4281619 C13.1417724,26.4520304 13.189145,26.4534238 13.2275173,26.4645705 C14.780716,25.9722365 15.5093652,25.4320444 16.3519151,24.1406597 C16.4171664,24.0406421 16.4716539,23.9293566 16.5087492,23.8160113 C16.8624925,22.7340519 16.9576632,21.6052641 17.1084161,20.4867749 C17.1163825,20.4275276 17.1132811,20.3654936 17.1062877,20.3058223 C17.0831183,20.1105728 16.9733527,20.0117668 16.7755922,20.0536276 C16.658225,20.078526 16.5488851,20.1390454 16.4334032,20.175757 C15.6824969,20.4139577 14.9351177,20.6648196 14.1780085,20.8819384 C13.6367211,21.0371445 13.0773117,21.1287415 12.5348081,21.280131 C11.8539572,21.47011 11.5146263,21.1984691 11.6123512,20.4934387 C11.776726,19.3081297 11.7868208,18.1151876 11.6347908,16.9365424 C11.5680801,16.4189466 11.345265,15.8691222 11.0381645,15.4455466 C10.4209229,14.5943365 9.68978052,13.8297559 8.6047124,13.5454537 C8.54700184,13.5303087 8.47840593,13.5082576 8.44252686,13.4660939 C8.01355917,12.9617651 7.45305517,13.0234356 6.88586186,13.091891 C6.72592635,13.111216 6.55297709,13.0663262 6.40198095,13.1082476 C6.01649382,13.215232 5.56380946,13.2630296 5.27671611,13.5008063 C4.77076046,13.9197778 4.32780601,14.433133 3.93696743,14.9642988 C3.6951182,15.2931272 3.55585877,15.716824 3.45101892,16.1187725 C3.38145002,16.3856276 3.33492886,16.6057754 3.07380222,16.7581948 C2.96154331,16.8236212 2.91544783,17.0014842 2.82422987,17.153419 C3.66361759,17.2527096 3.66361759,17.2527096 3.84009395,17.9035815 L3.84009395,17.9035815 Z" id="Fill-1" fill="#000000"></path>
                <path d="M28.6685298,2.61760278 C29.0532264,1.93765245 29.3699352,1.38080076 29.6837858,0.82237399 C29.9053846,0.428058535 30.1366526,0.01678067 30.658845,0.0242925945 C31.1686318,0.0316227788 31.3245538,0.4703434 31.5285779,0.842668302 C32.1643064,2.00301831 32.0138575,3.18917542 31.5973563,4.35334197 C31.3753318,4.97404502 31.0363658,5.55809715 30.7081636,6.13494025 C30.3709611,6.72771591 30.0116232,7.31273731 29.6073451,7.86122896 C29.2864403,8.29673884 28.8752905,8.6652472 28.5194189,9.07646448 C28.2826778,9.35004393 28.0603492,9.63804142 27.8541358,9.93512591 C27.634483,10.2515354 27.3554776,10.4458156 26.9712067,10.5136653 C26.5115898,10.5947819 26.3858306,10.5343231 26.4086959,10.0885751 C26.4258449,9.75550611 26.4973598,9.41122976 26.6186797,9.10063592 C26.8157713,8.59594364 26.8683128,8.12729648 26.7327021,7.57862309 C26.5650435,6.90061133 26.5435161,6.18497936 26.4799067,5.48364428 C26.4252976,4.88226627 26.4491967,4.270105 26.3504989,3.67720819 C26.2117867,2.84441443 26.5597529,2.13272017 26.8259877,1.40303364 C26.9645782,1.02319681 27.4047353,0.929116013 27.7440661,1.16283379 C28.0435651,1.3691694 28.3184961,1.60997504 28.4291131,1.98381444 C28.479587,2.15440782 28.5541425,2.31797392 28.6685298,2.61760278 L28.6685298,2.61760278 Z M27.6707877,2.51940254 C27.6133204,2.51425324 27.5559139,2.50910393 27.4984466,2.50389405 C27.2292319,2.74094373 27.1563184,3.05529354 27.1915893,3.40786935 C27.2174952,3.66733364 27.2634083,3.92504112 27.2829897,4.18474773 C27.346295,5.02705255 27.3836944,5.87184116 27.4670068,6.71208626 C27.5157172,7.20345093 27.6122258,7.69427038 27.8855756,8.21610681 C28.5022091,7.71444353 29.0189284,7.19430334 29.4031385,6.56233241 C30.000677,5.5794819 30.4263608,4.51333385 30.8435918,3.44579245 C31.089333,2.817214 31.0438457,2.18039666 30.8501595,1.55084892 C30.8132467,1.43096103 30.6984336,1.33488109 30.6218105,1.23086517 C30.1968564,1.48802743 30.1902888,1.53637029 29.9367028,2.06759663 C29.5901962,2.79328488 29.2042833,3.50037506 28.8357628,4.21570413 C28.7167537,4.44663523 28.5619264,4.62280197 28.2677181,4.55755727 C27.9658474,4.49067691 27.8371693,4.27586011 27.8192906,3.98810493 C27.8081011,3.80775817 27.8363179,3.62414008 27.8158243,3.44548955 C27.7801276,3.13538035 27.7204103,2.82799724 27.6707877,2.51940254 L27.6707877,2.51940254 Z" id="Fill-2" fill="#000000"></path>
                <path d="M22.0196522,13.7751127 C22.3718752,13.5679289 22.6756919,13.324276 23.0226242,13.2000264 C23.5720604,13.003323 23.8349506,13.1902124 23.9826021,13.7659651 C24.1363347,14.3658286 24.1027057,14.9474575 23.9348647,15.5488355 C23.6008245,16.7461999 23.0150227,17.7705478 22.0610044,18.5824414 C21.8785685,18.7376475 21.7590121,18.969669 21.569522,19.1123956 C21.0486674,19.5051965 20.6623289,19.58807 20.3124168,18.9940828 C20.2721593,18.9259302 20.2193745,18.8651079 20.1685356,18.7956831 C20.2337261,18.5983134 20.2564698,18.3808311 20.3661138,18.2234441 C20.7839529,17.6241864 20.604071,16.991125 20.493454,16.3689075 C20.4569669,16.1633594 20.3073694,15.9746526 20.1962659,15.7859458 C19.9207268,15.3177833 19.608579,14.8685217 19.3639324,14.3851536 C18.9287619,13.5254623 19.3711082,12.1954276 20.2083675,11.7487105 C20.6647614,11.5052393 21.3627004,11.6959452 21.6382395,12.1848867 C21.7828504,12.4413826 21.8561896,12.7439799 21.9257585,13.03434 C21.9845637,13.2798103 21.9915571,13.5375178 22.0196522,13.7751127 L22.0196522,13.7751127 Z M23.078328,14.3528039 C22.4581066,14.5504765 21.6756389,16.5464676 21.8766225,17.2674306 C22.7162534,16.6562386 23.315069,15.2039534 23.078328,14.3528039 L23.078328,14.3528039 Z M20.6411055,14.6045139 C20.6948025,14.5552018 20.7630335,14.5111601 20.80621,14.4496714 C21.1640885,13.940375 20.9759363,13.399577 20.8642855,12.8767107 C20.8169129,12.6549878 20.5008123,12.6825517 20.3320591,12.9085758 C19.9176254,13.4637313 20.0317087,14.1270827 20.6411055,14.6045139 L20.6411055,14.6045139 Z" id="Fill-3" fill="#000000"></path>
                <path d="M3.84009395,17.9035815 C3.66361759,17.2527096 3.66361759,17.2527096 2.82422987,17.153419 C2.91544783,17.0014842 2.96154331,16.8236212 3.07380222,16.7581948 C3.33492886,16.6057754 3.38145002,16.3856276 3.45101892,16.1187725 C3.55585877,15.716824 3.6951182,15.2931272 3.93696743,14.9642988 C4.32780601,14.433133 4.77076046,13.9197778 5.27671611,13.5008063 C5.56380946,13.2630296 6.01649382,13.215232 6.40198095,13.1082476 C6.55297709,13.0663262 6.72592635,13.111216 6.88586186,13.091891 C7.45305517,13.0234356 8.01355917,12.9617651 8.44252686,13.4660939 C8.47840593,13.5082576 8.54700184,13.5303087 8.6047124,13.5454537 C9.68978052,13.8297559 10.4209229,14.5943365 11.0381645,15.4455466 C11.345265,15.8691222 11.5680801,16.4189466 11.6347908,16.9365424 C11.7868208,18.1151876 11.776726,19.3081297 11.6123512,20.4934387 C11.5146263,21.1984691 11.8539572,21.47011 12.5348081,21.280131 C13.0773117,21.1287415 13.6367211,21.0371445 14.1780085,20.8819384 C14.9351177,20.6648196 15.6824969,20.4139577 16.4334032,20.175757 C16.5488851,20.1390454 16.658225,20.078526 16.7755922,20.0536276 C16.9733527,20.0117668 17.0831183,20.1105728 17.1062877,20.3058223 C17.1132811,20.3654936 17.1163825,20.4275276 17.1084161,20.4867749 C16.9576632,21.6052641 16.8624925,22.7340519 16.5087492,23.8160113 C16.4716539,23.9293566 16.4171664,24.0406421 16.3519151,24.1406597 C15.5093652,25.4320444 14.780716,25.9722365 13.2273957,26.464934 C13.189145,26.4534238 13.1417724,26.4520304 13.114103,26.4281619 C12.5203348,25.915473 12.4291169,25.9446726 12.0303727,26.6630913 C11.942621,26.8212052 11.751489,26.9438797 11.5812763,27.0311756 C10.9156284,27.3726652 10.1691005,27.3510987 9.45340436,27.4663826 C9.15560811,27.5143014 8.85215634,27.5740939 8.55381278,27.562826 C7.93456441,27.5394421 7.31531604,27.4858893 6.69971639,27.4137385 C6.53078072,27.3939894 6.37412906,27.2656203 6.21297732,27.1848671 C5.9970948,27.0767318 5.79325305,26.9104396 5.56532976,26.8663979 C4.38454359,26.6385564 3.67109747,25.8154554 3.00028054,24.9291089 C2.96434066,24.8816142 2.93423873,24.8253959 2.91721138,24.7685112 C2.44932402,23.2075454 2.20978564,21.6308894 2.58238063,20.0101311 C2.6497603,19.7170449 2.68484881,19.4166285 2.74389724,19.1213614 C2.83104081,18.6853669 3.02533508,18.3293986 3.46853277,18.1492942 C3.59502168,18.0978617 3.70132102,17.9972989 3.84009395,17.9035815 L3.84009395,17.9035815 Z M6.56003128,15.709615 C6.373825,15.7314238 6.16913189,15.7356038 5.97483762,15.7823716 C5.67375752,15.855007 5.47307799,16.0777598 5.5391198,16.3420099 C5.70696086,17.0132973 5.84980819,17.7073022 6.57657214,18.0618166 C6.97002563,18.2537947 7.2369294,18.1807352 7.37004682,17.7615819 C7.44885914,17.5134461 7.48838693,17.2530125 7.56142212,17.0027564 C7.74945275,16.3589724 7.26222719,15.7163999 6.56003128,15.709615 L6.56003128,15.709615 Z" id="Fill-4" fill="#E9E74F"></path>
                <path d="M27.6707877,2.51940254 C27.7204103,2.82799724 27.7801276,3.13538035 27.8158243,3.44548955 C27.8363179,3.62414008 27.8081011,3.80775817 27.8192906,3.98810493 C27.8371693,4.27586011 27.9658474,4.49067691 28.2677181,4.55755727 C28.5619264,4.62280197 28.7167537,4.44663523 28.8357628,4.21570413 C29.2042833,3.50037506 29.5901962,2.79328488 29.9367028,2.06759663 C30.1902888,1.53637029 30.1968564,1.48802743 30.6218105,1.23086517 C30.6984336,1.33488109 30.8132467,1.43096103 30.8501595,1.55084892 C31.0438457,2.18039666 31.089333,2.817214 30.8435918,3.44579245 C30.4263608,4.51333385 30.000677,5.5794819 29.4031385,6.56233241 C29.0189284,7.19430334 28.5022091,7.71444353 27.8855756,8.21610681 C27.6122258,7.69427038 27.5157172,7.20345093 27.4670068,6.71208626 C27.3836944,5.87184116 27.346295,5.02705255 27.2829897,4.18474773 C27.2634083,3.92504112 27.2174952,3.66733364 27.1915893,3.40786935 C27.1563184,3.05529354 27.2292319,2.74094373 27.4984466,2.50389405 C27.5559139,2.50910393 27.6133204,2.51425324 27.6707877,2.51940254" id="Fill-5" fill="#F47272"></path>
                <path d="M23.078328,14.3528039 C23.315069,15.2039534 22.7162534,16.6562386 21.8766225,17.2674306 C21.6756389,16.5464676 22.4581066,14.5504765 23.078328,14.3528039" id="Fill-6" fill="#F47272"></path>
                <path d="M20.6411055,14.6045139 C20.0317087,14.1270827 19.9176254,13.4637313 20.3320591,12.9085758 C20.5008123,12.6825517 20.8169129,12.6549878 20.8642855,12.8767107 C20.9759363,13.399577 21.1640885,13.940375 20.80621,14.4496714 C20.7630335,14.5111601 20.6948025,14.5552018 20.6411055,14.6045139" id="Fill-7" fill="#F47272"></path>
                <path d="M6.56003128,15.709615 C7.26222719,15.7163999 7.74945275,16.3589724 7.56142212,17.0027564 C7.48838693,17.2530125 7.44885914,17.5134461 7.37004682,17.7615819 C7.2369294,18.1807352 6.97002563,18.2537947 6.57657214,18.0618166 C5.84980819,17.7073022 5.70696086,17.0132973 5.5391198,16.3420099 C5.47307799,16.0777598 5.67375752,15.855007 5.97483762,15.7823716 C6.16913189,15.7356038 6.373825,15.7314238 6.56003128,15.709615" id="Fill-8" fill="#000000"></path>
            </g>
        </g>
    </g>
</svg>