<?xml version="1.0" encoding="UTF-8"?>
<svg width="841px" height="148px" viewBox="0 0 841 148" version="1.1" xmlns="http://www.w3.org/2000/svg" xmlns:xlink="http://www.w3.org/1999/xlink">
    <!-- Generator: Sketch 45.2 (43514) - http://www.bohemiancoding.com/sketch -->
    <title>Sabureapp</title>
    <desc>Created with Sketch.</desc>
    <defs></defs>
    <g id="Page-1" stroke="none" stroke-width="1" fill="none" fill-rule="evenodd">
        <g id="t" transform="translate(-717.000000, -457.000000)" fill="#565656">
            <path d="M734.124,566.104 C726.491962,561.879979 721.236014,556.360034 718.356,549.544 C717.875998,548.391994 717.636,547.432004 717.636,546.664 C717.636,545.223993 718.163995,543.952006 719.22,542.848 C720.276005,541.743994 721.715991,541.000002 723.54,540.616 C723.828001,540.52 724.307997,540.472 724.98,540.472 C726.516008,540.472 727.979993,540.927995 729.372,541.84 C730.764007,542.752005 731.795997,543.975992 732.468,545.512 C734.196009,549.256019 737.603975,552.423987 742.692,555.016 C747.780025,557.608013 753.395969,558.904 759.54,558.904 C766.740036,558.904 772.835975,557.248017 777.828,553.936 C782.820025,550.623983 785.316,546.088029 785.316,540.328 C785.316,534.855973 783.204021,530.176019 778.98,526.288 C774.755979,522.399981 768.324043,520.024004 759.684,519.16 C747.77994,518.007994 738.420034,514.528029 731.604,508.72 C724.787966,502.911971 721.38,495.640044 721.38,486.904 C721.38,480.759969 723.131982,475.456022 726.636,470.992 C730.140018,466.527978 734.93997,463.120012 741.036,460.768 C747.13203,458.415988 753.971962,457.24 761.556,457.24 C769.812041,457.24 776.771972,458.919983 782.436,462.28 C788.100028,465.640017 792.89998,470.439969 796.836,476.68 C797.988006,478.504009 798.564,480.231992 798.564,481.864 C798.564,483.976011 797.60401,485.703993 795.684,487.048 C794.627995,487.720003 793.380007,488.056 791.94,488.056 C790.499993,488.056 789.156006,487.696004 787.908,486.976 C786.659994,486.255996 785.700003,485.272006 785.028,484.024 C782.435987,479.703978 779.196019,476.416011 775.308,474.16 C771.419981,471.903989 766.50003,470.776 760.548,470.776 C753.251964,470.776 747.348023,472.191986 742.836,475.024 C738.323977,477.856014 736.068,481.959973 736.068,487.336 C736.068,492.328025 738.08398,496.503983 742.116,499.864 C746.14802,503.224017 753.347948,505.431995 763.716,506.488 C775.236058,507.640006 784.163968,511.119971 790.5,516.928 C796.836032,522.736029 800.004,530.391952 800.004,539.896 C800.004,546.808035 798.132019,552.735975 794.388,557.68 C790.643981,562.624025 785.676031,566.319988 779.484,568.768 C773.291969,571.216012 766.644036,572.44 759.54,572.44 C750.227953,572.44 741.756038,570.328021 734.124,566.104 Z M878.26,496.912 C884.26003,500.416018 889.011982,505.21597 892.516,511.312 C896.020018,517.40803 897.772,524.199963 897.772,531.688 L897.772,563.8 C897.772,565.912011 897.076007,567.663993 895.684,569.056 C894.291993,570.448007 892.540011,571.144 890.428,571.144 C888.315989,571.144 886.564007,570.448007 885.172,569.056 C883.779993,567.663993 883.084,565.912011 883.084,563.8 L883.084,558.472 C879.723983,562.600021 875.644024,565.815988 870.844,568.12 C866.043976,570.424012 860.860028,571.576 855.292,571.576 C848.379965,571.576 842.116028,569.848017 836.5,566.392 C830.883972,562.935983 826.468016,558.16003 823.252,552.064 C820.035984,545.96797 818.428,539.176037 818.428,531.688 C818.428,524.199963 820.155983,517.40803 823.612,511.312 C827.068017,505.21597 831.84397,500.416018 837.94,496.912 C844.03603,493.407982 850.779963,491.656 858.172,491.656 C865.564037,491.656 872.25997,493.407982 878.26,496.912 Z M871.204,555.088 C875.092019,552.735988 878.139989,549.52002 880.348,545.44 C882.556011,541.35998 883.66,536.776025 883.66,531.688 C883.66,526.599975 882.556011,521.992021 880.348,517.864 C878.139989,513.735979 875.092019,510.496012 871.204,508.144 C867.315981,505.791988 862.972024,504.616 858.172,504.616 C853.371976,504.616 849.028019,505.791988 845.14,508.144 C841.251981,510.496012 838.180011,513.735979 835.924,517.864 C833.667989,521.992021 832.54,526.599975 832.54,531.688 C832.54,536.776025 833.667989,541.35998 835.924,545.44 C838.180011,549.52002 841.251981,552.735988 845.14,555.088 C849.028019,557.440012 853.371976,558.616 858.172,558.616 C862.972024,558.616 867.315981,557.440012 871.204,555.088 Z M981.932,496.84 C987.548028,500.296017 991.963984,505.07197 995.18,511.168 C998.396016,517.26403 1000.004,524.055963 1000.004,531.544 C1000.004,539.032037 998.276017,545.82397 994.82,551.92 C991.363983,558.01603 986.58803,562.815982 980.492,566.32 C974.39597,569.824018 967.652037,571.576 960.26,571.576 C952.867963,571.576 946.17203,569.824018 940.172,566.32 C934.17197,562.815982 929.420018,558.01603 925.916,551.92 C922.411982,545.82397 920.66,539.032037 920.66,531.544 L920.66,465.88 C920.66,463.671989 921.355993,461.896007 922.748,460.552 C924.140007,459.207993 925.891989,458.536 928.004,458.536 C930.212011,458.536 931.987993,459.207993 933.332,460.552 C934.676007,461.896007 935.348,463.671989 935.348,465.88 L935.348,504.76 C938.708017,500.631979 942.787976,497.416012 947.588,495.112 C952.388024,492.807988 957.571972,491.656 963.14,491.656 C970.052035,491.656 976.315972,493.383983 981.932,496.84 Z M973.292,555.088 C977.180019,552.735988 980.251989,549.496021 982.508,545.368 C984.764011,541.239979 985.892,536.632025 985.892,531.544 C985.892,526.455975 984.764011,521.87202 982.508,517.792 C980.251989,513.71198 977.180019,510.496012 973.292,508.144 C969.403981,505.791988 965.060024,504.616 960.26,504.616 C955.459976,504.616 951.116019,505.791988 947.228,508.144 C943.339981,510.496012 940.292011,513.71198 938.084,517.792 C935.875989,521.87202 934.772,526.455975 934.772,531.544 C934.772,536.632025 935.875989,541.239979 938.084,545.368 C940.292011,549.496021 943.339981,552.735988 947.228,555.088 C951.116019,557.440012 955.459976,558.616 960.26,558.616 C965.060024,558.616 969.403981,557.440012 973.292,555.088 Z M1093.164,494.104 C1094.50801,495.448007 1095.18,497.223989 1095.18,499.432 L1095.18,563.656 C1095.18,565.768011 1094.50801,567.519993 1093.164,568.912 C1091.81999,570.304007 1090.04401,571 1087.836,571 C1085.72399,571 1083.97201,570.304007 1082.58,568.912 C1081.18799,567.519993 1080.492,565.768011 1080.492,563.656 L1080.492,562.072 C1077.41998,565.144015 1073.77202,567.519992 1069.548,569.2 C1065.32398,570.880008 1060.81202,571.72 1056.012,571.72 C1049.38797,571.72 1043.43603,570.280014 1038.156,567.4 C1032.87597,564.519986 1028.74801,560.320028 1025.772,554.8 C1022.79599,549.279972 1021.308,542.632039 1021.308,534.856 L1021.308,499.432 C1021.308,497.319989 1022.00399,495.568007 1023.396,494.176 C1024.78801,492.783993 1026.53999,492.088 1028.652,492.088 C1030.76401,492.088 1032.51599,492.783993 1033.908,494.176 C1035.30001,495.568007 1035.996,497.319989 1035.996,499.432 L1035.996,534.856 C1035.996,542.632039 1038.08398,548.51198 1042.26,552.496 C1046.43602,556.48002 1051.97997,558.472 1058.892,558.472 C1062.92402,558.472 1066.59598,557.656008 1069.908,556.024 C1073.22002,554.391992 1075.81199,552.184014 1077.684,549.4 C1079.55601,546.615986 1080.492,543.496017 1080.492,540.04 L1080.492,499.432 C1080.492,497.223989 1081.18799,495.448007 1082.58,494.104 C1083.97201,492.759993 1085.72399,492.088 1087.836,492.088 C1090.04401,492.088 1091.81999,492.759993 1093.164,494.104 Z M1172.644,493.672 C1175.52401,495.208008 1176.964,497.127988 1176.964,499.432 C1176.964,500.104003 1176.916,500.583999 1176.82,500.872 C1175.956,503.944015 1174.03601,505.48 1171.06,505.48 C1170.58,505.48 1169.86,505.384001 1168.9,505.192 C1165.05998,504.519997 1161.94001,504.184 1159.54,504.184 C1152.62797,504.184 1147.06002,505.767984 1142.836,508.936 C1138.61198,512.104016 1136.5,516.375973 1136.5,521.752 L1136.5,563.8 C1136.5,566.104012 1135.90001,567.879994 1134.7,569.128 C1133.49999,570.376006 1131.70001,571 1129.3,571 C1126.99599,571 1125.22001,570.400006 1123.972,569.2 C1122.72399,567.999994 1122.1,566.200012 1122.1,563.8 L1122.1,499.432 C1122.1,497.127988 1122.72399,495.352006 1123.972,494.104 C1125.22001,492.855994 1126.99599,492.232 1129.3,492.232 C1134.10002,492.232 1136.5,494.631976 1136.5,499.432 L1136.5,502.168 C1139.38001,498.807983 1142.93198,496.16801 1147.156,494.248 C1151.38002,492.32799 1155.89198,491.368 1160.692,491.368 C1165.78003,491.368 1169.76399,492.135992 1172.644,493.672 Z M1258.156,534.928 C1256.90799,536.128006 1255.32401,536.728 1253.404,536.728 L1198.684,536.728 C1199.74001,543.448034 1202.78797,548.871979 1207.828,553 C1212.86803,557.128021 1219.03596,559.192 1226.332,559.192 C1229.21201,559.192 1232.21198,558.664005 1235.332,557.608 C1238.45202,556.551995 1241.01999,555.256008 1243.036,553.72 C1244.38001,552.663995 1245.96399,552.136 1247.788,552.136 C1249.61201,552.136 1251.05199,552.615995 1252.108,553.576 C1253.83601,555.016007 1254.7,556.647991 1254.7,558.472 C1254.7,560.200009 1253.93201,561.639994 1252.396,562.792 C1249.13198,565.384013 1245.07602,567.495992 1240.228,569.128 C1235.37998,570.760008 1230.74802,571.576 1226.332,571.576 C1218.45996,571.576 1211.40403,569.872017 1205.164,566.464 C1198.92397,563.055983 1194.05202,558.32803 1190.548,552.28 C1187.04398,546.23197 1185.292,539.368038 1185.292,531.688 C1185.292,524.007962 1186.94798,517.12003 1190.26,511.024 C1193.57202,504.92797 1198.17997,500.176017 1204.084,496.768 C1209.98803,493.359983 1216.68396,491.656 1224.172,491.656 C1231.56404,491.656 1237.94797,493.287984 1243.324,496.552 C1248.70003,499.816016 1252.82799,504.375971 1255.708,510.232 C1258.58801,516.088029 1260.028,522.807962 1260.028,530.392 C1260.028,532.216009 1259.40401,533.727994 1258.156,534.928 Z M1207.108,509.8 C1202.73998,513.640019 1199.98001,518.775968 1198.828,525.208 L1246.78,525.208 C1245.916,518.775968 1243.51602,513.640019 1239.58,509.8 C1235.64398,505.959981 1230.50803,504.04 1224.172,504.04 C1217.16396,504.04 1211.47602,505.959981 1207.108,509.8 Z M1341.668,496.912 C1347.66803,500.416018 1352.41998,505.21597 1355.924,511.312 C1359.42802,517.40803 1361.18,524.199963 1361.18,531.688 L1361.18,563.8 C1361.18,565.912011 1360.48401,567.663993 1359.092,569.056 C1357.69999,570.448007 1355.94801,571.144 1353.836,571.144 C1351.72399,571.144 1349.97201,570.448007 1348.58,569.056 C1347.18799,567.663993 1346.492,565.912011 1346.492,563.8 L1346.492,558.472 C1343.13198,562.600021 1339.05202,565.815988 1334.252,568.12 C1329.45198,570.424012 1324.26803,571.576 1318.7,571.576 C1311.78797,571.576 1305.52403,569.848017 1299.908,566.392 C1294.29197,562.935983 1289.87602,558.16003 1286.66,552.064 C1283.44398,545.96797 1281.836,539.176037 1281.836,531.688 C1281.836,524.199963 1283.56398,517.40803 1287.02,511.312 C1290.47602,505.21597 1295.25197,500.416018 1301.348,496.912 C1307.44403,493.407982 1314.18796,491.656 1321.58,491.656 C1328.97204,491.656 1335.66797,493.407982 1341.668,496.912 Z M1333.612,555.088 C1337.50002,552.735988 1340.54799,549.52002 1342.756,545.44 C1344.96401,541.35998 1346.068,536.776025 1346.068,531.688 C1346.068,526.599975 1344.96401,521.992021 1342.756,517.864 C1340.54799,513.735979 1337.50002,510.496012 1333.612,508.144 C1329.72398,505.791988 1325.38002,504.616 1320.58,504.616 C1315.77998,504.616 1311.43602,505.791988 1307.548,508.144 C1303.65998,510.496012 1300.58801,513.735979 1298.332,517.864 C1296.07599,521.992021 1294.948,526.599975 1294.948,531.688 C1294.948,536.776025 1296.07599,541.35998 1298.332,545.44 C1300.58801,549.52002 1303.65998,552.735988 1307.548,555.088 C1311.43602,557.440012 1315.77998,558.616 1320.58,558.616 C1325.38002,558.616 1329.72398,557.440012 1333.612,555.088 Z M1440.9,496.912 C1446.99603,500.416018 1451.77198,505.21597 1455.228,511.312 C1458.68402,517.40803 1460.412,524.199963 1460.412,531.688 C1460.412,539.176037 1458.80402,545.96797 1455.588,552.064 C1452.37198,558.16003 1447.95603,562.935983 1442.34,566.392 C1436.72397,569.848017 1430.46003,571.576 1423.548,571.576 C1417.97997,571.576 1412.79602,570.424012 1407.996,568.12 C1403.19598,565.815988 1399.11602,562.600021 1395.756,558.472 L1395.756,597.352 C1395.756,599.560011 1395.08401,601.335993 1393.74,602.68 C1392.39599,604.024007 1390.62001,604.696 1388.412,604.696 C1386.29999,604.696 1384.54801,604.024007 1383.156,602.68 C1381.76399,601.335993 1381.068,599.560011 1381.068,597.352 L1381.068,531.688 C1381.068,524.199963 1382.81998,517.40803 1386.324,511.312 C1389.82802,505.21597 1394.57997,500.416018 1400.58,496.912 C1406.58003,493.407982 1413.27596,491.656 1420.668,491.656 C1428.06004,491.656 1434.80397,493.407982 1440.9,496.912 Z M1434.7,555.088 C1438.58802,552.735988 1441.65999,549.52002 1443.916,545.44 C1446.17201,541.35998 1447.3,536.776025 1447.3,531.688 C1447.3,526.599975 1446.17201,521.992021 1443.916,517.864 C1441.65999,513.735979 1438.58802,510.496012 1434.7,508.144 C1430.81198,505.791988 1426.46802,504.616 1421.668,504.616 C1416.86798,504.616 1412.52402,505.791988 1408.636,508.144 C1404.74798,510.496012 1401.70001,513.735979 1399.492,517.864 C1397.28399,521.992021 1396.18,526.599975 1396.18,531.688 C1396.18,536.776025 1397.28399,541.35998 1399.492,545.44 C1401.70001,549.52002 1404.74798,552.735988 1408.636,555.088 C1412.52402,557.440012 1416.86798,558.616 1421.668,558.616 C1426.46802,558.616 1430.81198,557.440012 1434.7,555.088 Z M1538.132,496.912 C1544.22803,500.416018 1549.00398,505.21597 1552.46,511.312 C1555.91602,517.40803 1557.644,524.199963 1557.644,531.688 C1557.644,539.176037 1556.03602,545.96797 1552.82,552.064 C1549.60398,558.16003 1545.18803,562.935983 1539.572,566.392 C1533.95597,569.848017 1527.69203,571.576 1520.78,571.576 C1515.21197,571.576 1510.02802,570.424012 1505.228,568.12 C1500.42798,565.815988 1496.34802,562.600021 1492.988,558.472 L1492.988,597.352 C1492.988,599.560011 1492.31601,601.335993 1490.972,602.68 C1489.62799,604.024007 1487.85201,604.696 1485.644,604.696 C1483.53199,604.696 1481.78001,604.024007 1480.388,602.68 C1478.99599,601.335993 1478.3,599.560011 1478.3,597.352 L1478.3,531.688 C1478.3,524.199963 1480.05198,517.40803 1483.556,511.312 C1487.06002,505.21597 1491.81197,500.416018 1497.812,496.912 C1503.81203,493.407982 1510.50796,491.656 1517.9,491.656 C1525.29204,491.656 1532.03597,493.407982 1538.132,496.912 Z M1531.932,555.088 C1535.82002,552.735988 1538.89199,549.52002 1541.148,545.44 C1543.40401,541.35998 1544.532,536.776025 1544.532,531.688 C1544.532,526.599975 1543.40401,521.992021 1541.148,517.864 C1538.89199,513.735979 1535.82002,510.496012 1531.932,508.144 C1528.04398,505.791988 1523.70002,504.616 1518.9,504.616 C1514.09998,504.616 1509.75602,505.791988 1505.868,508.144 C1501.97998,510.496012 1498.93201,513.735979 1496.724,517.864 C1494.51599,521.992021 1493.412,526.599975 1493.412,531.688 C1493.412,536.776025 1494.51599,541.35998 1496.724,545.44 C1498.93201,549.52002 1501.97998,552.735988 1505.868,555.088 C1509.75602,557.440012 1514.09998,558.616 1518.9,558.616 C1523.70002,558.616 1528.04398,557.440012 1531.932,555.088 Z" id="Sabureapp"></path>
        </g>
    </g>
</svg>