<?xml version="1.0" encoding="UTF-8"?>
<svg width="582px" height="585px" viewBox="0 0 582 585" version="1.1" xmlns="http://www.w3.org/2000/svg" xmlns:xlink="http://www.w3.org/1999/xlink">
    <!-- Generator: Sketch 45.2 (43514) - http://www.bohemiancoding.com/sketch -->
    <title>Group</title>
    <desc>Created with Sketch.</desc>
    <defs></defs>
    <g id="Page-1" stroke="none" stroke-width="1" fill="none" fill-rule="evenodd">
        <g id="Group">
            <path d="M233.978075,365.181162 C253.450625,361.907455 270.333987,359.138758 286.517241,352.688801 C296.407252,348.747284 306.447682,344.965244 316.723694,342.277393 C326.904588,339.613907 330.87298,343.506695 331.074275,354.239271 C331.525531,378.32472 327.730783,402.015906 323.763497,425.606312 C321.412103,439.595984 313.465365,451.421642 305.697802,463.170885 C293.469669,481.669103 274.478236,490.722742 255.549847,499.7199 C242.892579,505.735724 243.243186,505.104461 246.070168,518.224763 C247.912794,526.770069 252.241748,531.968574 260.028113,535.139286 C266.15324,537.635543 272.101404,540.570362 278.097127,543.377821 C280.746039,544.618197 283.605096,545.660334 285.856948,547.440053 C289.493535,550.315068 289.482474,554.629805 285.350392,556.31428 C280.804658,558.167092 275.418351,559.436263 270.64146,558.875879 C264.17568,558.113933 257.711006,555.911158 251.658876,553.34956 C242.194681,549.343809 234.689244,550.795714 228.100696,558.845977 C224.617846,563.10091 220.346405,566.715721 216.360317,570.548705 C214.774287,572.073703 213.163925,573.686193 211.284801,574.772629 C205.76356,577.968813 198.806707,577.141526 196.206459,573.222159 C193.601787,569.295039 194.843846,564.212819 199.504605,559.383104 C206.9105,551.707169 214.560826,544.239439 221.517678,536.171456 C223.932115,533.370642 225.672987,529.102419 225.842208,525.417837 C226.323325,514.9577 221.984417,511.389403 211.650893,513.138112 C197.890925,515.466033 184.095564,517.718645 170.486015,520.766426 C157.684964,523.631474 144.891656,523.212847 132.017608,522.516243 C127.237399,522.2582 122.469356,521.769802 117.694677,521.401012 C113.198714,521.053263 108.70607,520.601412 106.71192,526.181998 C104.586153,532.133589 106.251816,538.432928 111.489917,541.663443 C120.041647,546.937257 128.749325,551.52665 139.550695,548.683752 C141.743929,548.106755 146.654648,549.92302 146.800642,551.080336 C147.155674,553.882257 146.225513,557.624428 144.389524,559.760754 C140.465372,564.324674 135.132154,567.094479 128.836701,566.973764 C125.164721,566.903992 121.315779,567.060147 117.867216,566.034622 C106.102504,562.531666 98.0827684,567.070114 91.5019622,576.628764 C86.2594377,584.24268 82.5443237,585.488594 75.8960505,583.529464 C68.181576,581.259132 65.5072249,575.443761 68.8783672,568.153229 C69.4944192,566.820932 70.0728665,565.268246 71.1346436,564.376726 C83.8051841,553.750467 84.3736772,537.900231 88.5820751,523.696815 C91.23873,514.729559 90.4036865,512.968668 81.9105755,508.913081 C63.2498424,500.001199 48.7388883,486.451196 40.038952,467.98288 C30.6123619,447.974061 23.1578016,427.00395 25.7746398,404.109041 C27.6559762,387.645261 29.7452439,371.204739 31.9285231,354.778614 C33.1915955,345.278661 32.1574688,343.682784 22.6158529,342.973997 C18.9527218,342.702665 15.2431379,343.048198 11.5755828,342.802338 C6.9170356,342.491136 2.74292425,340.843208 1.13588033,336.026783 C-0.46673953,331.221432 1.80833917,327.371836 5.37082265,324.310765 C12.8828958,317.861916 20.1748715,311.096328 28.1326699,305.246625 C37.7262687,298.193093 44.0969314,288.801673 48.5243209,278.231895 C55.3783134,261.865574 66.3688128,248.698758 78.5383271,236.293888 C85.7893801,228.902575 94.6651733,224.784969 105.026348,224.07729 C120.445343,223.024078 135.810143,221.653019 151.282227,224.387384 C158.445904,225.65434 165.970144,224.71852 173.249953,225.525872 C181.310611,226.416285 191.838795,237.050296 193.924745,244.892354 C194.535267,247.185942 196.307107,249.322269 197.958392,251.159576 C204.091261,257.981645 211.222864,264.062811 216.474236,271.488457 C230.471998,291.277995 234.264533,313.910432 233.206074,337.746697 C232.836664,346.09155 233.637421,354.489562 233.978075,365.181162 L233.978075,365.181162 Z M69.8417088,327.29985 C67.3177761,329.01312 65.3844569,330.851534 63.0839398,331.791784 C55.0232817,335.084318 51.4895547,341.591864 49.9046311,349.562389 C48.8306878,354.96024 48.1925155,360.452227 46.9670477,365.81021 C40.1904764,395.439697 44.5470807,424.26294 53.056782,452.799346 C53.366467,453.839268 53.9139458,454.867009 54.5676024,455.735272 C66.7680852,471.938794 79.7438865,486.986108 101.219435,491.151336 C105.36479,491.956473 109.072162,494.996502 112.998525,496.973352 C115.929472,498.449621 118.778574,500.796369 121.851092,501.157407 C133.047311,502.476414 144.30989,503.455425 155.57247,503.882912 C160.998593,504.088903 166.517623,502.995822 171.933792,502.119806 C184.950516,500.012274 198.527991,500.406536 210.634462,494.163678 C213.730206,492.567802 217.20642,490.325157 218.802404,487.434637 C226.054563,474.301046 227.71359,473.767242 238.512748,483.139835 C239.015986,483.576181 239.877574,483.601653 240.575471,483.805429 C268.824273,474.804949 282.076579,464.929561 297.400456,441.321436 C298.587213,439.492988 299.578205,437.45855 300.252876,435.386457 C306.686582,415.606886 308.4175,394.971234 311.159318,374.523853 C311.304206,373.440739 311.2478,372.30668 311.120607,371.215814 C310.699215,367.64641 308.702852,365.840112 305.106082,366.60538 C302.971468,367.060553 300.982848,368.166925 298.88252,368.838057 C285.225412,373.192663 271.632452,377.778733 257.86253,381.747937 C248.017865,384.585298 237.843607,386.259806 227.976822,389.027395 C215.593846,392.500448 209.422267,387.534514 211.199637,374.645676 C214.189204,352.976746 214.372803,331.168273 211.607758,309.621166 C210.394456,300.158867 206.342007,290.10739 200.756617,282.363898 C189.530536,266.802714 176.232883,252.825224 156.498207,247.627826 C155.448596,247.350957 154.201008,246.947834 153.548457,246.177029 C145.746607,236.957268 135.552441,238.084682 125.236613,239.336133 C122.327786,239.689418 119.182271,238.868777 116.436029,239.635152 C109.424981,241.590959 101.191785,242.46476 95.9702743,246.811614 C86.7682059,254.470938 78.7119719,263.855713 71.6035952,273.566087 C67.2049622,279.577482 64.6721814,287.323188 62.7654066,294.67131 C61.5001222,299.549754 60.6540186,303.574332 55.9047779,306.360749 C53.863069,307.556826 53.0247075,310.808383 51.3656807,313.58594 C66.632045,315.401098 66.632045,315.401098 69.8417088,327.29985 L69.8417088,327.29985 Z" id="Fill-1" fill="#000000"></path>
            <path d="M521.408886,47.8530508 C528.405555,35.4227089 534.165696,25.2427639 539.873854,15.0340245 C543.904183,7.82544509 548.110369,0.306771623 557.607744,0.444098993 C566.879492,0.578103925 569.715321,8.59846528 573.426011,15.4050299 C584.988322,36.6176785 582.252034,58.3021131 574.676918,79.5845329 C570.638846,90.9317605 564.473903,101.608964 558.504725,112.154376 C552.371856,122.991056 545.836396,133.685979 538.48359,143.713092 C532.647133,151.674757 525.169347,158.41155 518.69693,165.929116 C514.391203,170.930491 510.347602,176.195445 506.597095,181.626521 C502.602159,187.410882 497.527749,190.962567 490.538822,192.202943 C482.179539,193.685857 479.892294,192.580593 480.308157,184.431764 C480.620054,178.342846 481.920731,172.049044 484.127237,166.371 C487.71184,157.144595 488.66744,148.577139 486.20102,138.546703 C483.151729,126.151801 482.760199,113.069154 481.603304,100.247872 C480.6101,89.2539302 481.044765,78.0628571 479.249698,67.2239622 C476.726871,51.9994514 483.055505,38.9887906 487.897651,25.6492086 C490.418266,18.7053167 498.423623,16.9854021 504.595203,21.2580553 C510.042341,25.030128 515.042647,29.4323562 517.054494,36.2666078 C517.972489,39.385268 519.328467,42.3754607 521.408886,47.8530508 L521.408886,47.8530508 Z M503.262451,46.0578277 C502.217265,45.963692 501.173184,45.8695563 500.127997,45.7743131 C495.231656,50.1078776 493.90554,55.854585 494.547031,62.3001115 C495.018194,67.0434432 495.853238,71.7546579 496.209376,76.5024195 C497.36074,91.9008045 498.040941,107.344596 499.556186,122.705327 C500.442106,131.688087 502.197356,140.66088 507.168906,150.200703 C518.383927,141.029671 527.781761,131.520858 534.769582,119.967639 C545.637313,101.999904 553.379438,82.5093844 560.967826,62.9933933 C565.437244,51.5021934 564.609943,39.8603764 561.087276,28.3514569 C560.415923,26.1597564 558.327762,24.403295 556.934179,22.5017539 C549.205327,27.2030014 549.085877,28.0867694 544.473782,37.7982509 C538.171693,51.0647393 531.152903,63.9912316 524.450435,77.0683411 C522.285958,81.2900502 519.470037,84.5105986 514.119123,83.3178439 C508.62885,82.0951873 506.288516,78.1680676 505.963347,72.9075433 C505.75984,69.610579 506.273032,66.2538108 505.900304,62.9878559 C505.251071,57.318672 504.164962,51.6993246 503.262451,46.0578277 L503.262451,46.0578277 Z" id="Fill-2" fill="#000000"></path>
            <path d="M400.482425,251.826278 C406.888481,248.038701 412.414146,243.584421 418.723977,241.312982 C428.716849,237.716999 433.498164,241.133571 436.183575,251.659049 C438.979588,262.625304 438.36796,273.258208 435.315351,284.25215 C429.239995,306.141468 418.585725,324.867827 401.234517,339.710257 C397.916464,342.547618 395.742033,346.789262 392.295681,349.398482 C382.822638,356.579374 375.796107,358.094405 369.43208,347.235576 C368.699896,345.989662 367.739873,344.877753 366.815242,343.608583 C368.000893,340.000417 368.414544,336.024568 370.408694,333.147338 C378.008143,322.192158 374.736542,310.619005 372.724695,299.24409 C372.061085,295.486414 369.340281,292.036618 367.319586,288.586822 C362.308219,280.028226 356.63103,271.815163 352.18152,262.97859 C344.266856,247.262358 352.31203,222.947662 367.539684,214.781113 C375.840348,210.330156 388.534114,213.816499 393.545481,222.75496 C396.175592,227.444025 397.509449,232.975882 398.774734,238.284028 C399.844253,242.771532 399.971445,247.482747 400.482425,251.826278 L400.482425,251.826278 Z M419.73709,262.387196 C408.456814,266.000899 394.225682,302.49011 397.881071,315.670215 C413.15186,304.496862 424.042817,277.947273 419.73709,262.387196 L419.73709,262.387196 Z M375.410107,266.98877 C376.38672,266.087283 377.627672,265.282146 378.412945,264.158055 C384.92186,254.84748 381.499841,244.961017 379.469192,235.402368 C378.607604,231.348996 372.858523,231.852898 369.789324,235.984902 C362.251812,246.133837 364.326702,258.26073 375.410107,266.98877 L375.410107,266.98877 Z" id="Fill-3" fill="#000000"></path>
            <path d="M69.8417088,327.29985 C66.632045,315.401098 66.632045,315.401098 51.3656807,313.58594 C53.0247075,310.808383 53.863069,307.556826 55.9047779,306.360749 C60.6540186,303.574332 61.5001222,299.549754 62.7654066,294.67131 C64.6721814,287.323188 67.2049622,279.577482 71.6035952,273.566087 C78.7119719,263.855713 86.7682059,254.470938 95.9702743,246.811614 C101.191785,242.46476 109.424981,241.590959 116.436029,239.635152 C119.182271,238.868777 122.327786,239.689418 125.236613,239.336133 C135.552441,238.084682 145.746607,236.957268 153.548457,246.177029 C154.201008,246.947834 155.448596,247.350957 156.498207,247.627826 C176.232883,252.825224 189.530536,266.802714 200.756617,282.363898 C206.342007,290.10739 210.394456,300.158867 211.607758,309.621166 C214.372803,331.168273 214.189204,352.976746 211.199637,374.645676 C209.422267,387.534514 215.593846,392.500448 227.976822,389.027395 C237.843607,386.259806 248.017865,384.585298 257.86253,381.747937 C271.632452,377.778733 285.225412,373.192663 298.88252,368.838057 C300.982848,368.166925 302.971468,367.060553 305.106082,366.60538 C308.702852,365.840112 310.699215,367.64641 311.120607,371.215814 C311.2478,372.30668 311.304206,373.440739 311.159318,374.523853 C308.4175,394.971234 306.686582,415.606886 300.252876,435.386457 C299.578205,437.45855 298.587213,439.492988 297.400456,441.321436 C282.076579,464.929561 268.824273,474.804949 240.573259,483.812074 C239.877574,483.601653 239.015986,483.576181 238.512748,483.139835 C227.71359,473.767242 226.054563,474.301046 218.802404,487.434637 C217.20642,490.325157 213.730206,492.567802 210.634462,494.163678 C198.527991,500.406536 184.950516,500.012274 171.933792,502.119806 C166.517623,502.995822 160.998593,504.088903 155.57247,503.882912 C144.30989,503.455425 133.047311,502.476414 121.851092,501.157407 C118.778574,500.796369 115.929472,498.449621 112.998525,496.973352 C109.072162,494.996502 105.36479,491.956473 101.219435,491.151336 C79.7438865,486.986108 66.7680852,471.938794 54.5676024,455.735272 C53.9139458,454.867009 53.366467,453.839268 53.056782,452.799346 C44.5470807,424.26294 40.1904764,395.439697 46.9670477,365.81021 C48.1925155,360.452227 48.8306878,354.96024 49.9046311,349.562389 C51.4895547,341.591864 55.0232817,335.084318 63.0839398,331.791784 C65.3844569,330.851534 67.3177761,329.01312 69.8417088,327.29985 L69.8417088,327.29985 Z M119.310569,287.191398 C115.923942,287.590091 112.201086,287.666507 108.667359,288.52148 C103.191465,289.849347 99.541606,293.921547 100.742741,298.752369 C103.795351,311.024342 106.393386,323.711619 119.611406,330.192585 C126.767341,333.702185 131.621654,332.366565 134.042727,324.70392 C135.476126,320.167687 136.195037,315.406635 137.523365,310.83164 C140.943172,299.062463 132.081757,287.315436 119.310569,287.191398 L119.310569,287.191398 Z" id="Fill-4" fill="#E9E74F"></path>
            <path d="M503.262451,46.0578277 C504.164962,51.6993246 505.251071,57.318672 505.900304,62.9878559 C506.273032,66.2538108 505.75984,69.610579 505.963347,72.9075433 C506.288516,78.1680676 508.62885,82.0951873 514.119123,83.3178439 C519.470037,84.5105986 522.285958,81.2900502 524.450435,77.0683411 C531.152903,63.9912316 538.171693,51.0647393 544.473782,37.7982509 C549.085877,28.0867694 549.205327,27.2030014 556.934179,22.5017539 C558.327762,24.403295 560.415923,26.1597564 561.087276,28.3514569 C564.609943,39.8603764 565.437244,51.5021934 560.967826,62.9933933 C553.379438,82.5093844 545.637313,101.999904 534.769582,119.967639 C527.781761,131.520858 518.383927,141.029671 507.168906,150.200703 C502.197356,140.66088 500.442106,131.688087 499.556186,122.705327 C498.040941,107.344596 497.36074,91.9008045 496.209376,76.5024195 C495.853238,71.7546579 495.018194,67.0434432 494.547031,62.3001115 C493.90554,55.854585 495.231656,50.1078776 500.127997,45.7743131 C501.173184,45.8695563 502.217265,45.963692 503.262451,46.0578277" id="Fill-5" fill="#F47272"></path>
            <path d="M419.73709,262.387196 C424.042817,277.947273 413.15186,304.496862 397.881071,315.670215 C394.225682,302.49011 408.456814,266.000899 419.73709,262.387196" id="Fill-6" fill="#F47272"></path>
            <path d="M375.410107,266.98877 C364.326702,258.26073 362.251812,246.133837 369.789324,235.984902 C372.858523,231.852898 378.607604,231.348996 379.469192,235.402368 C381.499841,244.961017 384.92186,254.84748 378.412945,264.158055 C377.627672,265.282146 376.38672,266.087283 375.410107,266.98877" id="Fill-7" fill="#F47272"></path>
            <path d="M119.310569,287.191398 C132.081757,287.315436 140.943172,299.062463 137.523365,310.83164 C136.195037,315.406635 135.476126,320.167687 134.042727,324.70392 C131.621654,332.366565 126.767341,333.702185 119.611406,330.192585 C106.393386,323.711619 103.795351,311.024342 100.742741,298.752369 C99.541606,293.921547 103.191465,289.849347 108.667359,288.52148 C112.201086,287.666507 115.923942,287.590091 119.310569,287.191398" id="Fill-8" fill="#000000"></path>
        </g>
    </g>
</svg>